<svg width="125" height="125" viewBox="0 0 125 125" fill="none" xmlns="http://www.w3.org/2000/svg">
<path d="M111.375 0H13.365C5.98641 0 0 5.98641 0 13.365V111.375C0 118.754 5.98641 124.74 13.365 124.74H111.375C118.754 124.74 124.74 118.754 124.74 111.375V13.365C124.74 5.98641 118.754 0 111.375 0ZM67.8831 97.2861C67.8831 109.426 60.7551 114.967 50.3693 114.967C40.986 114.967 35.5565 110.122 32.7721 104.247L42.3225 98.4833C44.1602 101.741 45.8308 104.498 49.8682 104.498C53.7106 104.498 56.1608 102.994 56.1608 97.119V57.2746H67.8831V97.2861ZM95.6154 114.967C84.7285 114.967 77.6841 109.788 74.2593 102.994L83.8097 97.481C86.3156 101.574 89.6012 104.609 95.3648 104.609C100.21 104.609 103.328 102.187 103.328 98.8175C103.328 94.808 100.154 93.3879 94.7801 91.0212L91.8565 89.7682C83.392 86.1764 77.7954 81.6379 77.7954 72.0875C77.7954 63.2888 84.5058 56.6063 94.9472 56.6063C102.409 56.6063 107.755 59.1958 111.598 65.9897L102.465 71.8369C100.46 68.245 98.2884 66.825 94.9193 66.825C91.4946 66.825 89.3227 68.9968 89.3227 71.8369C89.3227 75.3452 91.4946 76.7652 96.5343 78.9649L99.4579 80.2178C109.426 84.4779 115.023 88.8494 115.023 98.6504C115.023 109.175 106.725 114.967 95.6154 114.967Z" fill="white"/>
</svg>
