<svg width="70" height="69" viewBox="0 0 70 69" fill="none" xmlns="http://www.w3.org/2000/svg">
<path d="M64.0836 52.8206C60.2982 52.7262 57.3644 53.105 54.9038 54.1457C54.194 54.4295 53.0583 54.4298 52.9636 55.3287C53.3423 55.7075 53.3895 56.3226 53.7208 56.8429C54.289 57.789 55.2823 59.067 56.1814 59.7295C57.175 60.4865 58.1689 61.2435 59.2096 61.906C61.0552 63.0418 63.1373 63.7041 64.9353 64.8398C65.9767 65.5018 67.0171 66.3541 68.0582 67.0638C68.5789 67.442 68.9099 68.0574 69.5724 68.294V68.1521C69.2411 67.7261 69.1465 67.111 68.8155 66.6378C68.3426 66.1647 67.8691 65.7387 67.3959 65.2655C66.0236 63.4203 64.3202 61.8113 62.4747 60.4865C60.9608 59.4454 57.6482 58.0259 57.0331 56.2751C57.0331 56.2751 56.9856 56.2279 56.9384 56.1807C57.9795 56.086 59.2096 55.7075 60.2035 55.4234C61.8124 54.9974 63.2792 55.0921 64.9353 54.6664C65.6923 54.477 66.4496 54.2404 67.2065 54.0038V53.5782C66.3552 52.7262 65.7398 51.5907 64.8406 50.7863C62.4275 48.7038 59.7775 46.6695 57.0331 44.9662C55.5661 44.0198 53.6733 43.4044 52.1119 42.6003C51.5443 42.3159 50.5977 42.1743 50.2667 41.7011C49.4147 40.66 48.9415 39.288 48.3265 38.0575C46.9547 35.4547 45.6293 32.5687 44.4463 29.8244C43.5949 27.9788 43.0743 26.1333 42.0332 24.43C37.1595 16.3859 31.8598 11.5122 23.721 6.73285C21.9702 5.73929 19.8884 5.31331 17.6644 4.79293C16.4817 4.74543 15.2984 4.65103 14.1155 4.60353C13.3585 4.27224 12.6012 3.37338 11.9387 2.9474C9.24207 1.24377 2.28593 -2.4467 0.298513 2.42702C-0.979138 5.50271 2.19124 8.53088 3.27949 10.0926C4.08426 11.1809 5.12502 12.411 5.69289 13.6415C6.02418 14.4454 6.11858 15.2976 6.44987 16.1493C7.20714 18.2308 7.91661 20.5498 8.91047 22.4901C9.43115 23.4836 9.99873 24.5247 10.6613 25.4235C11.0398 25.9439 11.7021 26.1808 11.8443 27.0325C11.182 27.9788 11.1345 29.3984 10.7557 30.5813C9.05236 35.9282 9.71494 42.5528 12.128 46.4801C12.885 47.6628 14.6833 50.2659 17.0965 49.272C19.2258 48.4204 18.7526 45.7231 19.3677 43.3572C19.5099 42.7891 19.4152 42.4109 19.699 42.0324C19.6992 42.0796 19.699 42.1271 19.699 42.1271C20.3615 43.4519 21.0238 44.7296 21.6389 46.0544C23.1059 48.3728 25.6609 50.7862 27.7902 52.3952C28.9263 53.2466 29.8252 54.7136 31.2447 55.2343V55.0921H31.15C30.8659 54.6661 30.4402 54.477 30.0618 54.1457C29.2101 53.2941 28.2634 52.253 27.6011 51.3066C25.614 48.6566 23.8629 45.7232 22.3015 42.6947C21.5445 41.2279 20.8819 39.619 20.2668 38.1522C19.9828 37.5841 19.9828 36.7327 19.5096 36.4489C18.7998 37.4897 17.759 38.3888 17.2384 39.6665C16.3398 41.7011 16.2448 44.2089 15.9135 46.8114C15.7244 46.8589 15.8188 46.8114 15.7241 46.9061C14.2102 46.5273 13.6895 44.9662 13.1216 43.641C11.7021 40.2816 11.4655 34.8872 12.6959 31.0073C13.0272 30.0135 14.4468 26.8906 13.8789 25.9442C13.5951 25.045 12.6484 24.5247 12.128 23.8149C11.513 22.9157 10.8504 21.7803 10.4247 20.7864C9.28895 18.1367 8.72107 15.2029 7.49093 12.5529C6.92305 11.3225 5.92949 10.0451 5.12502 8.90967C4.22615 7.63202 3.23229 6.73285 2.52251 5.2186C2.28622 4.69822 1.95463 3.84656 2.33311 3.27868C2.42781 2.9002 2.6169 2.7583 2.99569 2.6636C3.61076 2.14292 5.3616 2.8055 5.97666 3.08929C7.72749 3.79875 9.19424 4.46163 10.6613 5.4552C11.3236 5.92838 12.0333 6.82754 12.885 7.06413H13.8789C15.3931 7.39512 17.0964 7.15883 18.516 7.58451C21.0241 8.38868 23.295 9.57194 25.3299 10.8496C31.5288 14.7769 36.6388 20.3607 40.0933 27.0325C40.6611 28.1204 40.8974 29.1146 41.4181 30.2501C42.412 32.5688 43.6421 34.9347 44.6357 37.2059C45.6293 39.4296 46.5756 41.7011 47.9952 43.5467C48.7052 44.5399 51.544 45.0606 52.8217 45.5813C53.768 46.007 55.2351 46.3857 56.0867 46.9061C57.6954 47.8994 59.3043 49.0354 60.8186 50.1237C61.5758 50.6913 63.9414 51.8745 64.0836 52.8206Z" fill="white"/>
<path d="M15.8186 11.701C15.0141 11.701 14.4465 11.796 13.8787 11.9379C13.8787 11.9376 13.8787 11.9854 13.8787 12.0325H13.9734C14.3521 12.7895 15.0141 13.3102 15.4873 13.9725C15.8661 14.7294 16.1971 15.4867 16.5759 16.244C16.6231 16.1965 16.6703 16.1493 16.6703 16.1493C17.3331 15.6758 17.6641 14.9188 17.6641 13.7834C17.38 13.4521 17.3328 13.1208 17.0962 12.7895C16.8124 12.316 16.1971 12.0797 15.8186 11.701Z" fill="white"/>
</svg>
