<svg width="125" height="142" viewBox="0 0 125 142" fill="none" xmlns="http://www.w3.org/2000/svg">
<path d="M11.3524 127.322L0 0H124.74L113.372 127.302L62.2942 141.463L11.3524 127.322Z" fill="white"/>
<path d="M62.37 130.641L103.647 119.198L113.357 10.4127H62.37V130.641Z" fill="white"/>
<path d="M62.37 57.631H41.7063L40.2816 41.6406H62.37V26.0241H62.3144H23.2151L23.5889 30.2175L27.4236 73.2475H62.37V57.631Z" fill="#1E1E1E"/>
<path d="M62.37 98.1854L62.2993 98.2056L44.9094 93.5121L43.7979 81.0583H35.3455H28.1208L30.3084 105.572L62.2993 114.454L62.37 114.433V98.1854Z" fill="#1E1E1E"/>
<path d="M62.3144 57.631V73.2475H81.5433L79.7346 93.5019L62.3144 98.2005V114.449L94.3305 105.572L94.5629 102.934L98.2309 61.8244L98.6148 57.631H94.4063H62.3144Z" fill="#1E1E1E"/>
<path d="M62.3144 26.0241V35.7245V41.6053V41.6406H99.984H100.035L100.348 38.1344L101.06 30.2175L101.434 26.0241H62.3144Z" fill="#1E1E1E"/>
</svg>
