<svg width="125" height="135" viewBox="0 0 125 135" fill="none" xmlns="http://www.w3.org/2000/svg">
<path d="M67.9953 1.43318C64.5899 -0.482017 60.1501 -0.473429 56.7419 1.43318C39.6717 10.8537 22.6011 20.277 5.52771 29.6932C2.20544 31.441 -0.0353214 35.0087 0.000421471 38.7117V95.6315C-0.023567 99.4068 2.33273 103.009 5.74067 104.733C10.6447 107.342 15.4092 110.216 20.4019 112.651C26.1691 115.485 33.3844 116.111 39.2221 113.156C43.9608 110.707 46.0656 105.259 46.0593 100.253C46.0977 81.4678 46.0656 62.6824 46.0742 43.897C46.1869 43.0622 45.5599 42.1698 44.6493 42.19C42.4678 42.1555 40.2834 42.1698 38.1019 42.1842C37.2776 42.1065 36.473 42.7911 36.5354 43.6197C36.5061 62.2837 36.5412 80.9535 36.5177 99.6203C36.5652 102.202 34.8207 104.684 32.3323 105.556C26.585 107.571 10.1806 96.9192 10.1806 96.9192C9.57859 96.6405 9.19631 95.9875 9.25532 95.3389C9.25532 76.5597 9.25825 57.7801 9.25532 39.0038C9.17256 38.2468 9.63914 37.565 10.3343 37.2559C27.3484 27.8909 44.3537 18.5025 61.3678 9.13175C61.9589 8.73733 62.7827 8.73853 63.3723 9.13463C80.3864 18.5025 97.3947 27.8824 114.412 37.2478C115.109 37.5564 115.556 38.2496 115.485 39.0038C115.482 57.7801 115.491 76.5597 115.479 95.3365C115.529 96.001 115.186 96.6448 114.566 96.9365C97.7104 106.251 80.6632 115.265 63.9605 124.85C63.2317 125.267 62.406 125.741 61.5895 125.28C57.1972 122.851 52.8581 120.327 48.4802 117.874C48.0043 117.577 47.3984 117.449 46.9018 117.782C44.9391 118.816 43.0929 119.654 40.8389 120.546C37.6734 121.799 38.1791 122.312 41.0342 123.975C46.1538 126.872 51.2821 129.758 56.4017 132.658C59.7721 134.762 64.3006 134.911 67.7795 132.968C84.8525 123.559 101.92 114.139 118.997 104.73C122.395 102.997 124.764 99.4092 124.74 95.6311V38.7117C124.773 35.0838 122.618 31.5797 119.395 29.8061C102.266 20.3397 85.1279 10.8938 67.9953 1.43318Z" fill="white"/>
<path d="M93.7561 44.1686C87.0552 40.5837 79.0833 40.3928 71.6368 40.8615C66.2571 41.3931 60.5992 42.8775 56.68 46.7339C52.66 50.6104 51.7849 56.8705 53.6944 61.9311C55.0627 65.5073 58.5069 67.8327 62.0688 69.0629C66.6568 70.6826 71.4756 71.1835 76.2958 71.6843C80.6925 72.1411 85.0905 72.5983 89.3163 73.9047C91.0425 74.4766 93.0528 75.3517 93.5815 77.23C94.0699 79.4542 93.5345 82.0397 91.7286 83.585C85.9925 88.1251 70.0363 87.4294 64.3688 83.8561C62.0774 82.3338 61.09 79.6389 60.6885 77.0707C60.6438 76.2704 59.9995 75.5364 59.1306 75.5973C56.9549 75.5714 54.7791 75.5772 52.6034 75.5944C51.8444 75.5306 51.0552 76.0709 51.0134 76.8457C50.5663 88.6082 61.3693 93.736 71.5044 94.8649C77.2947 95.4166 83.2122 95.385 88.9143 94.1423C93.2005 93.1665 97.4983 91.3693 100.449 88.068C104.087 84.0557 104.803 78.0821 103.171 73.0843C101.924 69.355 98.3585 66.9629 94.7142 65.7323C89.7582 64.033 83.8848 63.1195 79.3961 62.692C72.8717 62.0707 65.1186 62.3245 63.272 58.0373C62.5356 55.7924 63.1622 53.005 65.2252 51.6242C70.6835 47.9218 81.7926 48.4136 87.4452 51.1795C90.0408 52.4791 91.5448 55.1486 92.1657 57.8435C92.2808 58.6351 92.8134 59.4612 93.7297 59.4267C95.8906 59.4699 98.0515 59.4382 100.212 59.4411C100.954 59.4929 101.767 59.0741 101.912 58.3141C101.82 52.6816 98.9439 46.9157 93.7561 44.1686Z" fill="white"/>
</svg>
