<svg width="102" height="91" viewBox="0 0 102 91" fill="none" xmlns="http://www.w3.org/2000/svg">
<path d="M51.0027 54.6777C56.2581 54.6777 60.5185 50.4174 60.5185 45.1619C60.5185 39.9065 56.2581 35.6461 51.0027 35.6461C45.7472 35.6461 41.4869 39.9065 41.4869 45.1619C41.4869 50.4174 45.7472 54.6777 51.0027 54.6777Z" fill="white"/>
<path fill-rule="evenodd" clip-rule="evenodd" d="M51.7014 25.104C67.9258 25.2145 85.6272 26.3981 97.778 37.2336C98.135 37.5523 98.4792 37.8838 98.815 38.226C101.682 41.1478 103.18 45.8654 100.866 49.7478C96.1183 57.7187 85.5018 61.1952 75.2231 63.3351C59.8508 66.5353 43.7772 66.5608 28.4113 63.7431C19.5691 62.1196 10.5272 59.2742 4.24353 53.322C1.79764 51.0058 -0.293369 47.9585 0.0338826 44.567C0.565135 39.0802 5.82879 35.5591 10.2594 33.1748C22.5654 26.5533 37.5594 25.0721 51.7014 25.104ZM50.5241 27.5966C35.173 27.7008 18.5576 28.6804 6.70429 38.4958C6.28991 38.838 5.89041 39.1971 5.50578 39.5732C5.25716 39.8155 5.01703 40.0683 4.78541 40.3276C2.70502 42.6651 1.98889 46.42 3.9524 49.2271C5.92866 52.0513 8.92918 54.0892 12.0189 55.7509C23.5747 61.9644 37.2301 63.0673 50.5433 63.1141C64.0222 63.1629 77.9219 61.9347 89.8283 55.7785C94.5713 53.3242 99.9094 49.7201 99.7202 45.0791C99.546 40.8206 95.3937 38.1898 92.2848 36.3113C91.4433 35.8034 90.5785 35.3338 89.7008 34.8918C77.8815 28.9694 64.0307 27.5669 50.5241 27.5966Z" fill="white"/>
<path fill-rule="evenodd" clip-rule="evenodd" d="M72.4951 0.00125283C78.4302 0.152129 81.5051 7.28791 81.911 12.5579C81.9918 13.6056 82.0215 14.6574 82.0088 15.7093C81.996 16.8483 81.9344 17.9873 81.8345 19.1221C80.5829 33.1727 74.1675 46.5538 66.6131 58.9108C59.2244 70.9978 50.2143 83.0509 37.9573 88.6524C33.9049 90.5054 29.0854 91.6487 25.4984 89.5811C20.5811 86.7484 20.0435 80.1226 20.1348 75.097C20.1582 73.8624 20.2389 72.6277 20.3665 71.3973C22.2556 53.2073 31.476 35.9756 43.0148 21.1302C49.7468 12.4687 57.756 3.87727 67.7329 0.766256C69.3033 0.275378 70.5507 -0.0221223 72.4951 0.00125283ZM72.2103 2.49176C65.2424 2.60227 58.9864 7.76604 53.4465 13.1317C38.8817 27.2354 28.1482 45.9929 23.8302 65.6641C23.4966 67.1877 23.2161 68.722 23.01 70.2668C22.8506 71.4632 22.7337 72.666 22.6721 73.873C22.6232 74.8335 22.6062 75.7961 22.636 76.7588C22.6572 77.511 22.7061 78.2633 22.789 79.0113C22.8506 79.5829 22.9335 80.1524 23.0376 80.7176C23.1162 81.1363 23.2076 81.5528 23.3138 81.9671C23.401 82.3029 23.4987 82.6365 23.6092 82.968C24.4783 85.5882 26.7181 88.0914 29.725 88.1743C36.7397 88.3656 43.3442 83.2507 49.0541 77.6916C59.0778 67.9357 66.5472 55.6765 72.3825 42.7905C77.0915 32.3864 81.3989 21.0771 78.9934 9.62543C78.902 9.19192 78.7957 8.76267 78.6746 8.33767C78.5747 7.99129 78.4621 7.64916 78.3389 7.31129C77.4039 4.7634 75.2045 2.48539 72.2103 2.49176Z" fill="white"/>
<path fill-rule="evenodd" clip-rule="evenodd" d="M29.9819 0.0947323C37.5554 0.241358 44.3576 5.38176 50.3969 11.1384C61.4172 21.6423 69.5454 35.0044 75.7121 49.0677C80.4892 59.9626 84.8837 72.1921 80.9779 83.6884C79.7475 87.3115 76.6344 90.6265 72.4842 90.7115C64.8746 90.8645 57.8217 85.331 51.7016 79.3746C36.3484 64.4273 24.9499 44.6944 21.0441 23.7673C20.7636 22.2713 20.5405 20.7626 20.3875 19.2474C20.2621 18.0107 20.1835 16.7676 20.1622 15.5244C20.1452 14.5214 20.1665 13.5184 20.2366 12.5197C20.2834 11.8524 20.3514 11.1894 20.4427 10.5285C20.5299 9.90803 20.6404 9.28965 20.7785 8.67765C20.8699 8.27177 20.9719 7.87015 21.0887 7.47064C22.2341 3.55425 25.2134 0.0649822 29.9819 0.0947323ZM29.695 2.58737C25.2601 2.68512 23.2307 7.91477 22.8227 11.5847C22.7399 12.3369 22.6889 13.0955 22.6655 13.8542C22.6357 14.8232 22.6485 15.7943 22.6974 16.7633C23.3944 30.7863 29.6632 44.3438 37.2282 56.7581C44.3512 68.4457 52.9533 80.0865 64.7853 86.0705C68.2023 87.7982 72.3546 89.156 75.3063 87.524C79.008 85.4755 79.4628 80.5944 79.6604 76.9564C79.7135 75.9661 79.7199 74.9716 79.688 73.9792C79.6498 72.734 79.552 71.4908 79.4054 70.2541C78.0411 58.7004 72.9241 47.7672 67.0463 37.4354C59.7321 24.5834 50.7709 11.7738 38.0888 5.08213C35.4623 3.69662 32.619 2.564 29.695 2.58737Z" fill="white"/>
</svg>
