<svg width="125" height="75" viewBox="0 0 125 75" fill="none" xmlns="http://www.w3.org/2000/svg">
<path d="M62.37 0C45.738 0 35.343 8.316 31.185 24.948C37.422 16.632 44.6985 13.5135 53.0145 15.5925C57.7592 16.7787 61.1506 20.2208 64.9043 24.0312C71.0193 30.2381 78.0967 37.422 93.555 37.422C110.187 37.422 120.582 29.106 124.74 12.474C118.503 20.79 111.226 23.9085 102.91 21.8295C98.1658 20.6433 94.7744 17.2012 91.0207 13.3908C84.9057 7.18387 77.8283 0 62.37 0ZM31.185 37.422C14.553 37.422 4.158 45.738 0 62.37C6.237 54.054 13.5135 50.9355 21.8295 53.0145C26.5742 54.2007 29.9655 57.6428 33.7193 61.4532C39.8343 67.6601 46.9117 74.844 62.37 74.844C79.002 74.844 89.397 66.528 93.555 49.896C87.318 58.212 80.0415 61.3305 71.7255 59.2515C66.9808 58.0653 63.5894 54.6232 59.8357 50.8128C53.7207 44.6059 46.6433 37.422 31.185 37.422Z" fill="white"/>
</svg>
